<svg viewBox="0 0 237.99 300" xmlns="http://www.w3.org/2000/svg" data-name="Layer 2" id="Layer_2">
  <g data-name="Layer 1" id="Layer_1-2">
    <g>
      <path d="M212.57,229.77c-31.38-12.45-60.91,17.08-48.47,48.47,3.4,8.57,10.28,15.45,18.85,18.85,31.38,12.44,60.91-17.08,48.47-48.47-3.4-8.57-10.28-15.45-18.85-18.85Z" fill="#cba6f7"/>
      <path d="M236.34,0c-52.16,86.11-112.84,94.28-165.78,123.48C10.98,156.34-3.11,223.29.54,290.97c6.17-40.05,24.58-78.37,60.68-99.67,14.08-8.73,28.95-15.54,43.49-22.77,47.25-22.1,80.92-49.15,107.76-94.47-25.41,46.6-58.62,75.13-105.39,99.07-14.32,7.76-28.86,15.06-42.14,23.98-34.66,22.09-50.43,60.97-54,100.53,29.58-50.29,105.3-43.2,169.02-96.09C242.42,149.7,240.24,44.52,236.34,0Z" fill="#cba6f7"/>
    </g>
  </g>
</svg>