<svg viewBox="0 0 205.03 300" xmlns="http://www.w3.org/2000/svg" data-name="Layer 2" id="Layer_2">
  <g data-name="Layer 1" id="Layer_1-2">
    <g>
      <path d="M162.02,104.01c-6.79-3.77-12.93-2.84-18.23,2.77-.1.11-.2.23-.28.36-19.84,30.57-46.18,59.51-65.35,90.2-17.69,28.33-14.97,66.04,7.38,91.19,2.97,3.34,11.56,12.51,16.47,11.38.53-.12.98-.46,1.3-.9l101.72-139.76-43.01-55.24Z" fill="#cba6f7"/>
      <path d="M119.48,11.47c-2.97-3.34-11.56-12.51-16.47-11.38-.53.12-.98.46-1.3.9L0,140.75l43.01,55.24c6.79,3.77,12.93,2.84,18.23-2.77.1-.11.2-.23.28-.36,19.84-30.57,46.18-59.51,65.35-90.2,17.69-28.33,14.97-66.04-7.39-91.19Z" fill="#cba6f7"/>
    </g>
  </g>
</svg>