<svg width="3107" height="671" viewBox="0 0 3107 671" fill="none" xmlns="http://www.w3.org/2000/svg">
<path d="M8.9407e-07 659V143H80V227H84C90 213.667 96.6667 201.333 104 190C112 178 121.333 167.667 132 159C143.333 150.333 156.333 143.667 171 139C185.667 133.667 203 131 223 131C257 131 288.333 139.333 317 156C345.667 172 367 198.667 381 236H383C392.333 208 409.667 183.667 435 163C461 141.667 496 131 540 131C592.667 131 633.667 148.333 663 183C693 217 708 265.333 708 328V659H628V342C628 296 619 261.333 601 238C583 214.667 554.333 203 515 203C499 203 483.667 205 469 209C455 213 442.333 219 431 227C419.667 235 410.667 245.333 404 258C397.333 270 394 284.333 394 301V659H314V342C314 296 305 261.333 287 238C269 214.667 241 203 203 203C187 203 171.667 205 157 209C142.333 213 129.333 219 118 227C106.667 235 97.3333 245.333 90 258C83.3333 270 80 284.333 80 301V659H8.9407e-07Z" fill="#454543"/>
<path d="M1068.05 671C1033.38 671 1001.71 664.667 973.047 652C944.38 639.333 919.714 621.333 899.047 598C879.047 574 863.38 545.667 852.047 513C840.714 479.667 835.047 442.333 835.047 401C835.047 360.333 840.714 323.333 852.047 290C863.38 256.667 879.047 228.333 899.047 205C919.714 181 944.38 162.667 973.047 150C1001.71 137.333 1033.38 131 1068.05 131C1102.71 131 1134.05 137.333 1162.05 150C1190.71 162.667 1215.38 181 1236.05 205C1256.71 228.333 1272.71 256.667 1284.05 290C1295.38 323.333 1301.05 360.333 1301.05 401C1301.05 442.333 1295.38 479.667 1284.05 513C1272.71 545.667 1256.71 574 1236.05 598C1215.38 621.333 1190.71 639.333 1162.05 652C1134.05 664.667 1102.71 671 1068.05 671ZM1068.05 600C1111.38 600 1146.71 586.667 1174.05 560C1201.38 533.333 1215.05 492.667 1215.05 438V364C1215.05 309.333 1201.38 268.667 1174.05 242C1146.71 215.333 1111.38 202 1068.05 202C1024.71 202 989.38 215.333 962.047 242C934.714 268.667 921.047 309.333 921.047 364V438C921.047 492.667 934.714 533.333 962.047 560C989.38 586.667 1024.71 600 1068.05 600Z" fill="#69BD5A"/>
<path d="M1432.62 659V143H1512.62V227H1516.62C1529.28 197.667 1546.95 174.333 1569.62 157C1592.95 139.667 1623.95 131 1662.62 131C1715.95 131 1757.95 148.333 1788.62 183C1819.95 217 1835.62 265.333 1835.62 328V659H1755.62V342C1755.62 249.333 1716.62 203 1638.62 203C1622.62 203 1606.95 205 1591.62 209C1576.95 213 1563.62 219 1551.62 227C1539.62 235 1529.95 245.333 1522.62 258C1515.95 270 1512.62 284.333 1512.62 301V659H1432.62ZM2114.98 659C2086.98 659 2065.64 651.333 2050.98 636C2036.98 620 2029.98 599.333 2029.98 574V213H1944.98V143H1992.98C2010.31 143 2021.98 139.667 2027.98 133C2034.64 125.667 2037.98 113.333 2037.98 96V-3.91006e-05H2109.98V143H2222.98V213H2109.98V589H2214.98V659H2114.98ZM2883.45 671C2848.12 671 2816.12 664.667 2787.45 652C2759.45 639.333 2735.12 621.333 2714.45 598C2694.45 574 2678.79 545.667 2667.45 513C2656.79 479.667 2651.45 442.333 2651.45 401C2651.45 360.333 2656.79 323.333 2667.45 290C2678.79 256.667 2694.45 228.333 2714.45 205C2735.12 181 2759.45 162.667 2787.45 150C2816.12 137.333 2848.12 131 2883.45 131C2918.12 131 2949.12 137.333 2976.45 150C3003.79 162.667 3027.12 180.333 3046.45 203C3065.79 225 3080.45 251.333 3090.45 282C3101.12 312.667 3106.45 346.333 3106.45 383V421H2735.45V445C2735.45 467 2738.79 487.667 2745.45 507C2752.79 525.667 2762.79 542 2775.45 556C2788.79 570 2804.79 581 2823.45 589C2842.79 597 2864.45 601 2888.45 601C2921.12 601 2949.45 593.333 2973.45 578C2998.12 562.667 3017.12 540.667 3030.45 512L3087.45 553C3070.79 588.333 3044.79 617 3009.45 639C2974.12 660.333 2932.12 671 2883.45 671ZM2883.45 198C2861.45 198 2841.45 202 2823.45 210C2805.45 217.333 2789.79 228 2776.45 242C2763.79 256 2753.79 272.667 2746.45 292C2739.12 310.667 2735.45 331.333 2735.45 354V361H3020.45V350C3020.45 304 3007.79 267.333 2982.45 240C2957.79 212 2924.79 198 2883.45 198Z" fill="#444444"/>
<path d="M2456.77 659C2428.77 659 2407.44 651.333 2392.77 636C2378.77 620 2371.77 599.333 2371.77 574V213H2286.77V143H2334.77C2352.11 143 2363.77 139.667 2369.77 133C2376.44 125.667 2379.77 113.333 2379.77 96V-3.91006e-05H2451.77V143H2564.77V213H2451.77V589H2556.77V659H2456.77Z" fill="#68BC5A"/>
</svg>
